HIERARCHY
ROOT Hips
{
	OFFSET 0.000000 100.481300 0.000000
	CHANNELS 6 Xposition Yposition Zposition Xrotation Yrotation Zrotation
	JOINT Spine
	{
		OFFSET -0.279200 12.230698 -2.892100
		CHANNELS 3 Xrotation Yrotation Zrotation
		JOINT Spine1
		{
			OFFSET -0.325700 14.269203 -3.374200
			CHANNELS 3 Xrotation Yrotation Zrotation
			JOINT Spine2
			{
				OFFSET -0.372300 16.307602 -0.352600
				CHANNELS 3 Xrotation Yrotation Zrotation
				JOINT Neck
				{
					OFFSET -0.418800 17.814194 8.416900
					CHANNELS 3 Xrotation Yrotation Zrotation
					JOINT Head
					{
						OFFSET 0.000000 7.031097 3.806800
						CHANNELS 3 Xrotation Yrotation Zrotation
						JOINT HeadTop_End
						{
							OFFSET 0.000000 24.646606 12.978600
							CHANNELS 3 Xrotation Yrotation Zrotation
							End Site
							{
								OFFSET 0.000000 27.854965 0.000000
							}
						}
					}
				}
				JOINT LeftShoulder
				{
					OFFSET 16.952999 14.495407 -7.737500
					CHANNELS 3 Xrotation Yrotation Zrotation
					JOINT LeftArm
					{
						OFFSET 9.308998 -2.777710 0.208600
						CHANNELS 3 Xrotation Yrotation Zrotation
						JOINT LeftForeArm
						{
							OFFSET 29.972298 0.000000 0.000000
							CHANNELS 3 Xrotation Yrotation Zrotation
							JOINT LeftHand
							{
								OFFSET 26.026505 0.000000 0.000000
								CHANNELS 3 Xrotation Yrotation Zrotation
								JOINT LeftHandThumb1
								{
									OFFSET 12.240501 -7.147949 9.207150
									CHANNELS 3 Xrotation Yrotation Zrotation
									JOINT LeftHandThumb2
									{
										OFFSET 4.138618 -2.389435 2.389433
										CHANNELS 3 Xrotation Yrotation Zrotation
										JOINT LeftHandThumb3
										{
											OFFSET 2.726913 -1.574387 1.574386
											CHANNELS 3 Xrotation Yrotation Zrotation
											JOINT LeftHandThumb4
											{
												OFFSET 3.941010 -2.275345 2.275342
												CHANNELS 3 Xrotation Yrotation Zrotation
												End Site
												{
													OFFSET -0.005798 5.087799 0.009903
												}
											}
										}
									}
								}
								JOINT LeftHandIndex1
								{
									OFFSET 24.424698 -1.985611 5.953459
									CHANNELS 3 Xrotation Yrotation Zrotation
									JOINT LeftHandIndex2
									{
										OFFSET 6.426697 0.000000 0.000000
										CHANNELS 3 Xrotation Yrotation Zrotation
										JOINT LeftHandIndex3
										{
											OFFSET 5.337898 0.000000 0.000000
											CHANNELS 3 Xrotation Yrotation Zrotation
											JOINT LeftHandIndex4
											{
												OFFSET 4.409401 0.000000 0.000000
												CHANNELS 3 Xrotation Yrotation Zrotation
												End Site
												{
													OFFSET 0.000000 4.409363 0.014373
												}
											}
										}
									}
								}
								JOINT LeftHandMiddle1
								{
									OFFSET 23.810104 0.000000 0.000000
									CHANNELS 3 Xrotation Yrotation Zrotation
									JOINT LeftHandMiddle2
									{
										OFFSET 7.176498 0.000000 0.000000
										CHANNELS 3 Xrotation Yrotation Zrotation
										JOINT LeftHandMiddle3
										{
											OFFSET 6.774902 0.000000 0.000000
											CHANNELS 3 Xrotation Yrotation Zrotation
											JOINT LeftHandMiddle4
											{
												OFFSET 5.403328 0.000000 0.000000
												CHANNELS 3 Xrotation Yrotation Zrotation
												End Site
												{
													OFFSET -0.027702 5.403244 0.017414
												}
											}
										}
									}
								}
								JOINT LeftHandRing1
								{
									OFFSET 22.908401 -0.839279 -6.020567
									CHANNELS 3 Xrotation Yrotation Zrotation
									JOINT LeftHandRing2
									{
										OFFSET 6.337502 0.000000 0.000000
										CHANNELS 3 Xrotation Yrotation Zrotation
										JOINT LeftHandRing3
										{
											OFFSET 5.779297 0.000000 0.000000
											CHANNELS 3 Xrotation Yrotation Zrotation
											JOINT LeftHandRing4
											{
												OFFSET 4.965698 0.000000 0.000000
												CHANNELS 3 Xrotation Yrotation Zrotation
												End Site
												{
													OFFSET 0.000000 4.965668 0.016186
												}
											}
										}
									}
								}
								JOINT LeftHandPinky1
								{
									OFFSET 20.037003 -1.530319 -10.950146
									CHANNELS 3 Xrotation Yrotation Zrotation
									JOINT LeftHandPinky2
									{
										OFFSET 5.254700 0.000000 0.000000
										CHANNELS 3 Xrotation Yrotation Zrotation
										JOINT LeftHandPinky3
										{
											OFFSET 4.810204 0.000000 0.000000
											CHANNELS 3 Xrotation Yrotation Zrotation
											JOINT LeftHandPinky4
											{
												OFFSET 3.647202 0.000000 0.000000
												CHANNELS 3 Xrotation Yrotation Zrotation
												End Site
												{
													OFFSET 0.000000 3.647186 0.011889
												}
											}
										}
									}
								}
							}
						}
					}
				}
				JOINT RightShoulder
				{
					OFFSET -15.141001 14.495407 -7.737500
					CHANNELS 3 Xrotation Yrotation Zrotation
					JOINT RightArm
					{
						OFFSET -9.308998 -2.777710 0.208500
						CHANNELS 3 Xrotation Yrotation Zrotation
						JOINT RightForeArm
						{
							OFFSET -29.972300 0.000000 0.000000
							CHANNELS 3 Xrotation Yrotation Zrotation
							JOINT RightHand
							{
								OFFSET -26.026505 0.000000 0.000000
								CHANNELS 3 Xrotation Yrotation Zrotation
								JOINT RightHandThumb1
								{
									OFFSET -12.240601 -7.148026 9.207092
									CHANNELS 3 Xrotation Yrotation Zrotation
									JOINT RightHandThumb2
									{
										OFFSET -4.138618 -2.389435 2.389433
										CHANNELS 3 Xrotation Yrotation Zrotation
										JOINT RightHandThumb3
										{
											OFFSET -2.726974 -1.574417 1.574421
											CHANNELS 3 Xrotation Yrotation Zrotation
											JOINT RightHandThumb4
											{
												OFFSET -3.941010 -2.275345 2.275343
												CHANNELS 3 Xrotation Yrotation Zrotation
												End Site
												{
													OFFSET 0.005814 5.087799 0.009927
												}
											}
										}
									}
								}
								JOINT RightHandIndex1
								{
									OFFSET -24.424698 -1.985657 5.953444
									CHANNELS 3 Xrotation Yrotation Zrotation
									JOINT RightHandIndex2
									{
										OFFSET -6.426697 0.000000 0.000000
										CHANNELS 3 Xrotation Yrotation Zrotation
										JOINT RightHandIndex3
										{
											OFFSET -5.337898 0.000000 0.000000
											CHANNELS 3 Xrotation Yrotation Zrotation
											JOINT RightHandIndex4
											{
												OFFSET -4.409401 0.000000 0.000000
												CHANNELS 3 Xrotation Yrotation Zrotation
												End Site
												{
													OFFSET 0.000000 4.409363 0.014408
												}
											}
										}
									}
								}
								JOINT RightHandMiddle1
								{
									OFFSET -23.810097 0.000000 0.000000
									CHANNELS 3 Xrotation Yrotation Zrotation
									JOINT RightHandMiddle2
									{
										OFFSET -7.176498 0.000000 0.000000
										CHANNELS 3 Xrotation Yrotation Zrotation
										JOINT RightHandMiddle3
										{
											OFFSET -6.774902 0.000000 0.000000
											CHANNELS 3 Xrotation Yrotation Zrotation
											JOINT RightHandMiddle4
											{
												OFFSET -5.403328 0.000000 0.000000
												CHANNELS 3 Xrotation Yrotation Zrotation
												End Site
												{
													OFFSET 0.027702 5.403244 0.017457
												}
											}
										}
									}
								}
								JOINT RightHandRing1
								{
									OFFSET -22.908302 -0.839325 -6.020576
									CHANNELS 3 Xrotation Yrotation Zrotation
									JOINT RightHandRing2
									{
										OFFSET -6.337502 0.000000 0.000000
										CHANNELS 3 Xrotation Yrotation Zrotation
										JOINT RightHandRing3
										{
											OFFSET -5.779297 0.000000 0.000000
											CHANNELS 3 Xrotation Yrotation Zrotation
											JOINT RightHandRing4
											{
												OFFSET -4.965698 0.000000 0.000000
												CHANNELS 3 Xrotation Yrotation Zrotation
												End Site
												{
													OFFSET 0.000000 4.965668 0.016226
												}
											}
										}
									}
								}
								JOINT RightHandPinky1
								{
									OFFSET -20.037003 -1.530334 -10.950259
									CHANNELS 3 Xrotation Yrotation Zrotation
									JOINT RightHandPinky2
									{
										OFFSET -5.254700 0.000000 0.000000
										CHANNELS 3 Xrotation Yrotation Zrotation
										JOINT RightHandPinky3
										{
											OFFSET -4.810204 0.000000 0.000000
											CHANNELS 3 Xrotation Yrotation Zrotation
											JOINT RightHandPinky4
											{
												OFFSET -3.647202 0.000000 0.000000
												CHANNELS 3 Xrotation Yrotation Zrotation
												End Site
												{
													OFFSET 0.000000 3.647186 0.011917
												}
											}
										}
									}
								}
							}
						}
					}
				}
			}
		}
	}
	JOINT LeftUpLeg
	{
		OFFSET 15.427100 -6.655098 0.678600
		CHANNELS 3 Xrotation Yrotation Zrotation
		JOINT LeftLeg
		{
			OFFSET 4.081073 -39.591068 13.024000
			CHANNELS 3 Xrotation Yrotation Zrotation
			JOINT LeftFoot
			{
				OFFSET -4.081074 -37.707932 -15.979700
				CHANNELS 3 Xrotation Yrotation Zrotation
				JOINT LeftToeBase
				{
					OFFSET 5.346399 -15.068900 20.645000
					CHANNELS 3 Xrotation Yrotation Zrotation
					JOINT LeftToe_End
					{
						OFFSET 2.754700 0.931300 11.300900
						CHANNELS 3 Xrotation Yrotation Zrotation
						End Site
						{
							OFFSET 0.000000 11.669021 0.000000
						}
					}
				}
			}
		}
	}
	JOINT RightUpLeg
	{
		OFFSET -15.569500 -6.655098 0.678600
		CHANNELS 3 Xrotation Yrotation Zrotation
		JOINT RightLeg
		{
			OFFSET -4.081825 -39.591045 13.023800
			CHANNELS 3 Xrotation Yrotation Zrotation
			JOINT RightFoot
			{
				OFFSET 4.081824 -37.707954 -15.979600
				CHANNELS 3 Xrotation Yrotation Zrotation
				JOINT RightToeBase
				{
					OFFSET -5.346400 -15.068900 20.645000
					CHANNELS 3 Xrotation Yrotation Zrotation
					JOINT RightToe_End
					{
						OFFSET -2.754700 0.931300 11.300900
						CHANNELS 3 Xrotation Yrotation Zrotation
						End Site
						{
							OFFSET 0.000000 11.669021 0.000000
						}
					}
				}
			}
		}
	}
}
MOTION
Frames: 6
Frame Time: 0.033333
4.735959 69.428299 1.366852 -24.476960 1.122690 -3.641812 1.676091 -1.610231 2.342083 2.913381 0.497493 0.828354 2.905814 0.547347 0.829682 7.391711 1.015594 -4.319036 -14.028728 11.739508 -14.626410 -0.000000 -0.000000 0.000001 0.102414 7.557801 -10.611667 -4.704931 20.135609 -44.732883 0.000009 -51.952324 0.000011 -3.561092 -7.330740 19.308707 -4.962201 17.710139 8.545647 5.718528 16.212291 1.888987 0.356939 5.683805 3.276120 -0.000001 -0.000001 0.000001 0.271134 1.916794 -16.100211 0.071429 0.991253 -8.243226 0.017875 0.496921 -4.121303 -0.000001 -0.000000 -0.000000 0.270596 1.914942 -16.084201 0.071703 0.993171 -8.259189 0.017879 0.496925 -4.121292 0.000001 0.000001 0.000001 0.271134 1.916794 -16.100212 0.071427 0.991255 -8.243226 0.017879 0.496919 -4.121295 -0.000002 0.000003 0.000000 1.382966 5.816432 -15.664812 0.062290 -3.063666 -8.748647 0.017879 0.496924 -4.121293 -0.000001 -0.000000 -0.000002 3.733400 12.102936 9.935765 12.025607 -1.498210 34.105621 0.000004 52.431329 -0.000002 14.970921 -0.394456 34.677844 -14.042853 -16.009086 -14.573038 3.806574 -12.298772 -0.790102 -1.668314 -1.692438 -2.360698 0.000002 0.000000 -0.000001 0.141545 -1.398603 11.556864 0.198192 -1.651509 13.685194 0.049714 -0.831677 6.841162 0.000001 -0.000000 0.000001 0.141545 -1.398603 11.556859 0.198190 -1.651511 13.685195 0.049714 -0.831675 6.841170 -0.000002 0.000000 -0.000001 0.141545 -1.398599 11.556861 0.198190 -1.651509 13.685198 0.049717 -0.831678 6.841161 -0.000001 0.000001 -0.000001 1.492931 -7.816464 10.861278 0.198193 -1.651510 13.685177 0.049715 -0.831673 6.841165 0.000001 -0.000000 -0.000000 -1.977500 15.367973 46.195889 70.896380 6.679371 10.046939 -3.965871 3.528466 -8.260474 -22.996767 0.685174 -7.642151 -0.000000 -0.000001 -0.000003 5.288764 -20.582572 -38.678125 71.581141 1.808956 0.081112 -3.039296 -2.947380 9.621460 -24.126235 -1.629596 13.129654 0.000001 -0.000001 0.000004 
4.509955 66.717529 2.739475 -24.684386 1.905981 -3.550101 1.809589 -1.829872 2.174626 3.172244 0.140207 0.574962 3.170291 0.199811 0.573483 7.192668 1.234655 -4.572378 -15.144116 14.182304 -16.676974 0.000001 0.000002 0.000000 0.105128 7.593184 -10.715239 -3.690383 19.143888 -46.254219 -0.000023 -49.934868 -0.000026 1.412850 -6.059528 17.359223 -4.962217 17.710143 8.545649 5.718523 16.212287 1.888989 0.356945 5.683806 3.276121 -0.000003 0.000002 -0.000002 0.271126 1.916804 -16.100214 0.071431 0.991253 -8.243226 0.017878 0.496921 -4.121299 -0.000000 0.000000 -0.000002 0.270595 1.914946 -16.084211 0.071700 0.993169 -8.259188 0.017879 0.496922 -4.121297 -0.000000 0.000001 0.000000 0.271126 1.916804 -16.100214 0.071429 0.991253 -8.243231 0.017877 0.496920 -4.121289 -0.000002 0.000000 -0.000001 1.382973 5.816447 -15.664793 0.062288 -3.063664 -8.748642 0.017883 0.496928 -4.121289 -0.000001 -0.000000 0.000003 3.653571 11.858811 9.804471 12.626828 -3.819000 32.865234 0.000012 55.630036 -0.000003 12.934882 -0.509675 33.007511 -14.042862 -16.009086 -14.573030 3.806576 -12.298772 -0.790122 -1.668308 -1.692429 -2.360686 -0.000005 0.000001 0.000002 0.141546 -1.398602 11.556858 0.198195 -1.651508 13.685193 0.049716 -0.831678 6.841161 -0.000003 0.000001 -0.000000 0.141547 -1.398602 11.556855 0.198195 -1.651509 13.685196 0.049712 -0.831675 6.841170 0.000000 0.000002 -0.000001 0.141542 -1.398603 11.556858 0.198195 -1.651509 13.685198 0.049718 -0.831678 6.841159 -0.000002 0.000001 -0.000000 1.492929 -7.816468 10.861278 0.198190 -1.651511 13.685178 0.049714 -0.831672 6.841162 0.000001 0.000000 -0.000000 -2.542841 12.194367 47.996675 74.192663 7.143933 10.359728 -1.933282 3.096129 -8.108587 -23.349046 1.016629 -9.135792 -0.000000 -0.000001 -0.000002 2.606016 -17.763406 -40.728920 76.104481 1.653834 -0.840639 1.244261 -1.768057 9.193943 -23.497659 -2.860271 17.546146 -0.000000 0.000003 -0.000003 
4.157648 63.673637 4.336956 -25.021005 3.042336 -3.295610 1.915962 -2.085481 1.980251 3.398815 -0.304069 0.321314 3.404714 -0.236195 0.316281 7.105086 1.473412 -4.717696 -15.993118 16.384254 -18.005057 -0.000000 -0.000000 -0.000000 0.105056 7.625393 -10.779756 -2.249509 17.552645 -47.498443 -0.000001 -48.197783 -0.000001 4.722842 -5.425096 14.810888 -4.962207 17.710143 8.545647 5.718525 16.212291 1.888987 0.356941 5.683804 3.276122 0.000004 0.000002 -0.000002 0.271114 1.916793 -16.100204 0.071434 0.991256 -8.243226 0.017876 0.496919 -4.121301 0.000002 0.000002 -0.000001 0.270595 1.914945 -16.084206 0.071704 0.993172 -8.259188 0.017881 0.496922 -4.121297 0.000000 0.000000 -0.000002 0.271114 1.916793 -16.100206 0.071433 0.991257 -8.243228 0.017876 0.496920 -4.121293 0.000001 0.000002 -0.000001 1.382949 5.816432 -15.664813 0.062285 -3.063668 -8.748644 0.017881 0.496925 -4.121288 -0.000001 -0.000001 0.000001 3.510120 11.438993 9.563170 12.990501 -6.707998 31.660177 -0.000008 59.021010 0.000010 10.494722 -0.737976 31.938374 -14.042855 -16.009072 -14.573040 3.806582 -12.298777 -0.790113 -1.668319 -1.692453 -2.360686 -0.000002 -0.000001 -0.000000 0.141540 -1.398597 11.556864 0.198192 -1.651511 13.685195 0.049715 -0.831680 6.841162 0.000001 -0.000001 0.000000 0.141541 -1.398597 11.556865 0.198191 -1.651509 13.685192 0.049713 -0.831674 6.841171 -0.000000 0.000001 0.000000 0.141545 -1.398602 11.556860 0.198192 -1.651510 13.685198 0.049718 -0.831681 6.841161 0.000001 -0.000000 -0.000000 1.492935 -7.816463 10.861270 0.198191 -1.651510 13.685176 0.049714 -0.831674 6.841166 0.000001 -0.000000 0.000001 -2.683658 8.141933 49.946090 77.671477 7.230077 10.089868 0.437841 2.674230 -7.602189 -23.750373 1.426119 -10.558893 -0.000002 -0.000002 -0.000001 0.642029 -14.642484 -42.664633 80.285158 1.791621 -1.509794 5.393731 -0.730526 8.806899 -22.448183 -4.440064 22.133665 0.000001 0.000000 -0.000001 
3.718702 60.381058 6.215237 -25.536061 4.440735 -2.908178 1.970989 -2.276771 1.681460 3.568143 -0.832485 0.074001 3.583046 -0.761994 0.065574 7.180077 1.723824 -4.790488 -16.642996 18.237592 -18.463492 -0.000000 0.000002 -0.000001 0.101305 7.627139 -10.734501 0.682465 15.118298 -47.817704 -0.000010 -47.315336 -0.000008 3.576130 -5.258040 12.143885 -4.962208 17.710141 8.545650 5.718523 16.212289 1.888988 0.356944 5.683806 3.276122 -0.000004 0.000000 0.000000 0.271129 1.916791 -16.100197 0.071433 0.991258 -8.243226 0.017877 0.496923 -4.121301 0.000002 0.000001 -0.000001 0.270598 1.914938 -16.084204 0.071701 0.993171 -8.259191 0.017880 0.496924 -4.121299 -0.000000 -0.000002 0.000000 0.271129 1.916790 -16.100197 0.071429 0.991259 -8.243224 0.017874 0.496920 -4.121298 0.000000 -0.000001 -0.000002 1.382968 5.816440 -15.664796 0.062289 -3.063665 -8.748643 0.017881 0.496929 -4.121291 0.000000 -0.000002 -0.000001 3.247613 10.672944 9.088326 13.393537 -10.049336 30.378001 -0.000020 62.856148 0.000017 8.248522 -0.971299 31.613766 -14.042855 -16.009070 -14.573042 3.806580 -12.298790 -0.790099 -1.668322 -1.692439 -2.360680 0.000000 0.000000 0.000003 0.141540 -1.398612 11.556865 0.198190 -1.651508 13.685196 0.049719 -0.831681 6.841161 -0.000001 -0.000002 -0.000001 0.141541 -1.398611 11.556863 0.198195 -1.651508 13.685192 0.049715 -0.831675 6.841170 -0.000002 -0.000001 -0.000001 0.141540 -1.398612 11.556860 0.198194 -1.651510 13.685199 0.049717 -0.831681 6.841162 0.000001 -0.000002 0.000000 1.492934 -7.816439 10.861285 0.198189 -1.651511 13.685177 0.049711 -0.831673 6.841163 0.000003 -0.000001 -0.000000 -2.407526 3.492403 51.636838 81.107731 6.737231 9.736615 3.574638 2.741509 -6.876394 -24.165312 1.971939 -12.036888 0.000001 -0.000001 0.000001 -0.206908 -11.486199 -44.479862 83.990529 2.213662 -1.927555 8.552759 -0.042047 8.712687 -21.947370 -5.807638 25.348686 -0.000000 -0.000002 -0.000001 
3.196106 56.808655 8.408390 -26.045260 5.887001 -2.405989 1.995949 -2.373304 1.271067 3.714329 -1.370526 -0.223530 3.736421 -1.302539 -0.233684 7.260638 1.967862 -4.660024 -17.447056 19.658584 -18.045838 -0.000002 0.000001 0.000000 0.087003 7.416513 -10.107404 6.711451 12.241167 -46.691337 0.000034 -47.912507 0.000032 -1.198323 -4.695862 10.548131 -4.962210 17.710136 8.545636 5.718525 16.212289 1.888989 0.356941 5.683803 3.276121 0.000000 -0.000001 0.000002 0.271138 1.916801 -16.100204 0.071431 0.991257 -8.243226 0.017876 0.496923 -4.121299 0.000002 -0.000002 -0.000000 0.270593 1.914945 -16.084218 0.071698 0.993170 -8.259193 0.017879 0.496928 -4.121295 -0.000000 0.000003 0.000002 0.271138 1.916801 -16.100207 0.071432 0.991255 -8.243228 0.017876 0.496920 -4.121294 -0.000001 0.000004 -0.000001 1.382964 5.816437 -15.664810 0.062290 -3.063662 -8.748644 0.017880 0.496926 -4.121287 -0.000001 0.000003 0.000002 2.822584 9.350397 8.286672 13.932082 -13.747257 28.901461 0.000002 67.606367 0.000001 6.787092 -0.869683 32.131491 -14.042854 -16.009075 -14.573011 3.806580 -12.298790 -0.790120 -1.668320 -1.692452 -2.360687 0.000001 -0.000001 -0.000001 0.141549 -1.398608 11.556880 0.198192 -1.651509 13.685197 0.049718 -0.831682 6.841160 -0.000002 -0.000001 0.000001 0.141550 -1.398607 11.556881 0.198189 -1.651507 13.685192 0.049715 -0.831674 6.841169 0.000002 0.000000 0.000001 0.141548 -1.398603 11.556880 0.198185 -1.651510 13.685198 0.049722 -0.831680 6.841160 -0.000002 0.000000 -0.000001 1.492931 -7.816450 10.861290 0.198195 -1.651509 13.685179 0.049712 -0.831674 6.841164 -0.000001 0.000000 -0.000000 -1.620279 -1.604843 52.701972 84.506891 5.696732 9.429976 7.202446 3.353001 -6.315563 -24.396041 2.700834 -13.573340 0.000001 -0.000002 0.000002 -0.077893 -7.883300 -46.046523 87.533430 2.735044 -2.180614 10.597500 0.225607 9.207997 -22.521741 -6.693050 26.700217 -0.000002 0.000001 0.000001 
2.644715 52.916763 10.989311 -26.764772 7.188956 -1.900310 2.086617 -2.474620 0.872101 4.002438 -1.826876 -0.516786 4.028296 -1.760843 -0.526551 7.478870 2.127870 -4.271270 -18.820836 20.700620 -17.124445 -0.000001 -0.000001 0.000001 0.064817 6.953805 -8.830764 16.756800 10.398463 -43.364413 0.000006 -51.055961 -0.000004 -4.908503 -3.069725 11.556954 -4.962208 17.710144 8.545636 5.718523 16.212291 1.888990 0.356940 5.683806 3.276113 0.000001 0.000001 0.000000 0.271113 1.916799 -16.100229 0.071429 0.991257 -8.243225 0.017877 0.496924 -4.121299 0.000001 -0.000002 -0.000000 0.270585 1.914941 -16.084230 0.071701 0.993168 -8.259192 0.017882 0.496923 -4.121297 0.000002 -0.000005 0.000001 0.271113 1.916799 -16.100228 0.071429 0.991253 -8.243226 0.017875 0.496919 -4.121296 -0.000001 -0.000001 0.000000 1.382968 5.816438 -15.664807 0.062286 -3.063669 -8.748646 0.017880 0.496925 -4.121290 0.000001 -0.000002 -0.000000 2.264273 7.397570 7.135146 14.967818 -17.500357 26.712566 0.000019 73.610048 -0.000005 6.143249 -0.199565 32.071249 -14.042865 -16.009062 -14.573035 3.806582 -12.298777 -0.790094 -1.668326 -1.692433 -2.360675 -0.000002 -0.000000 0.000000 0.141537 -1.398594 11.556860 0.198190 -1.651510 13.685192 0.049718 -0.831681 6.841161 -0.000001 0.000001 -0.000001 0.141538 -1.398594 11.556858 0.198194 -1.651512 13.685195 0.049712 -0.831675 6.841170 -0.000002 0.000002 -0.000001 0.141540 -1.398592 11.556859 0.198193 -1.651511 13.685198 0.049715 -0.831681 6.841162 -0.000003 0.000000 -0.000001 1.492934 -7.816452 10.861271 0.198191 -1.651508 13.685177 0.049708 -0.831672 6.841164 0.000003 0.000000 -0.000000 0.333220 -6.840090 53.387829 87.879386 4.554190 9.082717 10.636907 3.940049 -6.156320 -25.037892 3.349944 -14.194365 -0.000000 -0.000001 -0.000001 1.167266 -3.575414 -47.025583 91.131177 2.996964 -2.540605 11.548970 0.080272 10.433193 -24.297131 -7.018370 26.193386 -0.000002 0.000000 -0.000001 
